<?xml version="1.0" standalone="no"?>
<!DOCTYPE svg PUBLIC "-//W3C//DTD SVG 20010904//EN"
 "http://www.w3.org/TR/2001/REC-SVG-20010904/DTD/svg10.dtd">
<svg version="1.0" xmlns="http://www.w3.org/2000/svg"
 width="300.000000pt" height="300.000000pt" viewBox="0 0 300.000000 300.000000"
 preserveAspectRatio="xMidYMid meet">
<metadata>
Created by potrace 1.11, written by Peter Selinger 2001-2013
</metadata>
<g transform="translate(0.000000,300.000000) scale(0.100000,-0.100000)"
fill="#000000" stroke="none">
<path d="M1287 2989 c-540 -77 -972 -439 -1152 -963 -15 -44 -28 -87 -30 -95
-2 -9 -10 -45 -18 -81 -27 -116 -31 -162 -31 -340 0 -142 5 -195 23 -280 67
-315 204 -570 427 -794 109 -109 281 -231 392 -277 17 -8 32 -18 32 -22 0 -5
4 -5 10 -2 5 3 10 1 10 -5 0 -6 4 -8 10 -5 5 3 10 1 10 -5 0 -7 7 -9 16 -6 8
3 12 2 9 -4 -3 -6 -3 -10 2 -11 14 -1 36 -8 108 -33 126 -44 227 -59 405 -60
145 -1 224 4 295 18 11 2 37 6 58 10 25 5 35 11 30 19 -5 9 -3 9 8 1 11 -9 34
-6 99 13 47 14 88 29 91 35 4 6 12 7 18 4 6 -4 11 -4 11 1 0 4 15 14 33 21 79
32 183 86 260 136 85 55 101 66 166 123 20 18 40 33 44 33 5 0 6 3 4 8 -2 4 4
15 15 24 10 10 18 16 18 13 0 -3 17 14 38 37 20 24 39 45 42 48 18 17 82 113
71 106 -9 -6 -12 -5 -9 5 3 8 10 14 16 14 6 0 17 7 24 15 11 12 11 12 -4 1
-10 -7 -18 -10 -18 -5 -1 5 -11 -2 -23 -17 -37 -43 -158 -142 -237 -195 -189
-127 -498 -252 -690 -281 -19 -2 -53 -8 -74 -13 -65 -14 -285 -10 -356 6 -106
25 -101 32 26 32 515 1 978 275 1228 726 68 122 138 332 154 461 9 75 9 289 0
375 -24 221 -130 480 -277 675 -121 160 -329 329 -501 407 -19 9 -51 23 -70
31 -61 28 -160 58 -259 79 -106 22 -350 32 -454 17z m242 -287 c7 -12 0 -40
-25 -102 -29 -72 -76 -224 -89 -288 -2 -9 -13 -55 -25 -102 -12 -47 -23 -92
-25 -100 -2 -8 -11 -44 -20 -80 -9 -36 -19 -75 -21 -87 -26 -140 -200 -792
-240 -900 -14 -37 -31 -86 -38 -108 -7 -22 -28 -75 -46 -118 -18 -43 -31 -80
-29 -82 2 -2 23 0 46 4 23 5 97 6 165 3 280 -10 340 -7 453 26 22 7 60 23 84
37 80 46 112 27 105 -63 -4 -52 -16 -77 -62 -124 -45 -47 -117 -70 -213 -67
-54 2 -91 11 -176 45 -199 78 -352 91 -440 37 -78 -48 -93 -54 -113 -48 -26 8
-26 39 0 75 41 57 114 322 155 561 3 19 10 50 15 69 7 26 107 516 134 655 8
39 66 330 71 350 7 33 -175 -163 -197 -212 -24 -54 -48 -164 -48 -221 0 -28 7
-53 21 -71 24 -32 18 -75 -13 -92 -35 -19 -118 10 -171 60 -132 122 -35 309
298 574 107 86 110 90 158 185 27 53 60 110 75 126 58 62 189 99 211 58z m431
-459 c97 -46 199 -132 220 -188 28 -74 7 -166 -60 -265 -109 -160 -294 -294
-480 -346 -71 -20 -76 -30 -67 -131 8 -80 39 -148 78 -168 61 -32 163 -10 216
47 48 51 62 139 35 223 -5 17 -7 36 -5 43 12 32 135 -7 148 -48 17 -54 -31
-176 -95 -240 -66 -66 -138 -95 -235 -95 -91 1 -125 14 -181 72 -83 85 -119
210 -111 383 8 153 17 199 69 340 79 214 185 355 297 393 55 18 100 13 171
-20z m831 -1610 c-5 -10 -35 -43 -67 -73 l-57 -55 63 73 c66 74 78 85 61 55z"/>
<path d="M1915 2131 c-118 -73 -270 -338 -318 -554 l-15 -69 26 7 c51 13 147
79 218 150 58 58 81 92 128 187 47 94 59 129 63 180 4 54 2 67 -17 91 -25 32
-44 34 -85 8z"/>
</g>
</svg>
